<svg width="47" height="44" viewBox="0 0 47 44" fill="none" xmlns="http://www.w3.org/2000/svg">
<g clip-path="url(#clip0_4201_15160)">
<path d="M2.80296 16.1164L0 17.5669L0.0763813 18.3077L10.3428 37.2148C10.3428 37.2148 18.8451 31.3931 25.2354 31.6883C31.6257 31.9835 32.1269 29.9 34.1335 29.3607C36.1395 28.8214 42.0776 28.4638 43.7352 27.5924C45.3923 26.721 45.0503 26.2838 45.0503 26.2838L34.419 9.25586L2.80296 16.1164Z" fill="#51662B"/>
<path d="M2.9957 16.9678L0.969727 17.8222L10.9137 35.977C10.9137 35.977 14.8064 32.8916 19.0511 32.0344C23.2959 31.1772 24.6339 31.4497 26.9824 31.3475C29.3304 31.2453 30.8384 30.7883 31.8813 29.8885C32.9243 28.9887 34.3092 28.526 36.9165 28.2252C39.5239 27.9243 42.9713 27.9782 44.3061 26.3546C41.9251 23.0847 38.0522 18.0606 38.0522 18.0606L2.9957 16.9678Z" fill="#38461E"/>
<path d="M3.79961 12.0542L2.26517 12.9313L1.86328 17.3366C1.86328 17.3366 10.2032 31.6254 11.1295 34.5122C14.0959 32.4373 19.0177 27.7796 24.7337 29.8741C27.6942 30.9589 30.0347 29.8557 31.091 28.7458C32.1472 27.636 35.1264 27.2997 36.84 27.4841C38.5541 27.6686 41.6328 27.7056 43.5627 26.4254C43.7518 25.3809 43.3464 23.9928 43.3464 23.9928L34.7178 12.3239L3.79961 12.0542Z" fill="#F4D0AA"/>
<path d="M34.7178 12.324L3.79957 12.0542L2.26514 12.9312L12.2289 30.7712C12.2289 30.7712 18.3204 24.1006 27.235 27.3563C30.2142 25.0714 33.4954 23.8538 37.4211 24.1405C40.4524 24.3618 42.0834 24.6432 43.2899 23.9164L34.7178 12.324Z" fill="#EEB67B"/>
<path d="M20.1173 10.9608C20.1173 10.9608 17.0252 6.46205 9.26274 9.16242C3.98195 10.9993 2.66309 11.5388 2.66309 11.5388L12.4848 29.8677C12.4848 29.8677 14.9041 27.3927 17.7059 26.5669C20.9765 25.603 24.589 25.5517 27.2991 27.126C29.7089 24.8539 34.6972 23.1479 38.3188 23.7621C41.9398 24.3763 43.6076 22.8148 43.6076 22.8148L33.152 6.24414C33.152 6.24414 31.8603 7.3761 29.9576 7.13928C28.0555 6.90245 21.2588 6.69381 20.1173 10.9608Z" fill="#FAE9D7"/>
<path d="M20.2583 11.6816L27.1584 26.5984C27.1584 26.5984 25.3591 19.2163 20.2583 11.6816Z" fill="#EEB67B"/>
<path d="M5.88991 12.8797C5.78391 12.8189 6.39754 11.7714 8.30073 11.0177C9.34368 10.5999 10.5773 10.3092 12.0192 10.1733L12.0235 10.173C13.4713 10.0353 14.7805 10.0855 15.9039 10.2425C17.821 10.5054 18.9486 11.1605 18.8916 11.246C18.8346 11.3314 17.7022 10.876 15.8315 10.7086C14.7374 10.6138 13.4931 10.5989 12.0959 10.7309L12.0917 10.7312C10.6972 10.8651 9.53703 11.1042 8.52072 11.451C6.77998 12.053 5.98632 12.9348 5.88991 12.8797Z" fill="#EEB67B"/>
<path d="M7.25424 14.73C7.19724 14.6701 7.65586 14.2166 8.62637 13.76C9.64695 13.2799 11.0452 12.902 12.8051 12.8094L12.8253 12.808C14.4478 12.7212 16.0895 12.8565 17.1069 12.9615C18.1913 13.0734 18.8561 13.1773 18.8513 13.2546C18.8465 13.332 18.1663 13.3683 17.0765 13.3579C16.1454 13.3491 14.3312 13.2873 12.8674 13.3682L12.8477 13.3695C11.1474 13.4684 9.86054 13.749 8.82612 14.1144C7.85721 14.4566 7.31123 14.79 7.25424 14.73Z" fill="#EEB67B"/>
<path d="M9.02084 17.1207C8.91378 16.9954 10.8425 15.6331 13.7802 15.1596C16.7178 14.6861 19.1739 15.0512 19.1638 15.2059C19.1542 15.3606 16.7215 15.2687 13.9005 15.7126C11.0796 16.1567 9.12738 17.2459 9.02084 17.1207Z" fill="#EEB67B"/>
<path d="M10.7531 20.0311C10.6881 19.9776 11.046 19.5078 11.8924 19.0024C12.7782 18.4736 14.0545 18.0136 15.6882 17.8479L15.7121 17.8456C17.2377 17.69 18.7366 17.7754 19.7055 17.8631C20.7181 17.9547 21.3359 18.0593 21.3312 18.1367C21.3264 18.214 20.6946 18.2501 19.6836 18.2601C18.7595 18.2693 17.1982 18.256 15.791 18.4028L15.7675 18.4051C14.2122 18.5728 13.0376 18.9248 12.1332 19.337C11.2793 19.726 10.8186 20.0848 10.7531 20.0312V20.0311Z" fill="#EEB67B"/>
<path d="M12.4282 22.4915C12.3344 22.3803 13.9601 21.0664 16.7326 20.6186L16.7427 20.6168C18.1271 20.3905 19.3229 20.4824 20.2125 20.7026C21.0684 20.9144 21.5201 21.2009 21.4818 21.2711C21.444 21.3412 20.939 21.1895 20.1139 21.0881C19.2451 20.9813 18.1734 20.9616 16.8642 21.1684L16.8546 21.1703C14.3367 21.5777 12.5342 22.6172 12.4282 22.4916V22.4915Z" fill="#EEB67B"/>
<path d="M12.7803 25.189C12.726 25.1271 13.1702 24.7229 14.0704 24.2925C15.0356 23.8309 16.2714 23.4633 17.8848 23.2076C17.9125 23.2032 17.9397 23.1989 17.9668 23.1947C19.1137 23.0123 20.1332 22.9629 21.0472 23.0263C22.634 23.1288 23.4895 23.6353 23.417 23.7439C23.3611 23.8283 22.479 23.5037 21.0238 23.492C20.1443 23.4895 19.2042 23.5687 18.0872 23.7464L18.0073 23.7596C16.3907 24.0259 15.287 24.2913 14.2723 24.6482C13.3625 24.9683 12.8352 25.2509 12.7803 25.189V25.189Z" fill="#EEB67B"/>
<path d="M22.2072 11.1753C22.1331 11.1313 22.4314 10.5598 23.2874 9.90809C24.1716 9.2354 25.5634 8.58512 27.3803 8.37733C27.3894 8.37606 27.3979 8.37531 27.407 8.37403C30.8954 7.97613 33.63 9.01993 33.5768 9.16796C33.5235 9.31604 30.7915 8.54826 27.4943 8.93023C27.4863 8.93098 27.4778 8.93231 27.4693 8.933C25.777 9.13541 24.4784 9.66301 23.5745 10.2139C22.7031 10.7453 22.2817 11.2189 22.2077 11.1749L22.2072 11.1753Z" fill="#EEB67B"/>
<path d="M23.833 13.0384C23.776 12.9954 24.2645 12.1736 25.8049 11.6853C26.5757 11.4408 27.4498 11.3165 28.4512 11.2949C28.4751 11.2943 28.4991 11.2937 28.5231 11.2937C29.8952 11.2698 31.3446 11.4462 32.1841 11.5581C33.1061 11.6809 33.6734 11.7771 33.6686 11.8545C33.6638 11.9318 33.0784 11.9754 32.1414 11.9537C31.205 11.9318 29.9256 11.8278 28.5369 11.8547C28.514 11.8553 28.4911 11.8554 28.4682 11.856C27.503 11.8789 26.7099 11.9605 25.9818 12.1407C24.6283 12.4753 23.922 13.1056 23.8325 13.0385L23.833 13.0384Z" fill="#EEB67B"/>
<path d="M25.4529 14.9748C25.4029 14.9104 25.8013 14.5684 26.6141 14.2583C27.4744 13.9298 28.6116 13.7175 30.0258 13.7263L30.0413 13.7264C31.138 13.7297 32.8303 13.8697 33.4348 13.9107C34.2882 13.9686 34.8272 13.9904 34.8352 14.0678C34.8432 14.1446 34.3121 14.263 33.4306 14.307C32.5528 14.3508 31.3404 14.2922 30.0386 14.2878L30.0242 14.2877C28.6489 14.2895 27.6411 14.4133 26.7729 14.6271C25.9739 14.8239 25.503 15.0393 25.4529 14.9748Z" fill="#EEB67B"/>
<path d="M26.2985 18.1422C26.2484 18.0777 26.6644 17.7258 27.4991 17.377C28.3689 17.0137 29.5605 16.723 31.0269 16.683L31.029 16.6829C32.3751 16.6451 33.7557 16.7892 34.5883 16.8919C35.4869 17.0028 36.0382 17.0994 36.0328 17.1768C36.028 17.2541 35.4608 17.2974 34.552 17.2879C33.6439 17.2784 32.4012 17.2034 31.0514 17.2439L31.0493 17.244C29.6457 17.2878 28.5564 17.4906 27.6749 17.7422C26.8429 17.9799 26.3485 18.2066 26.2985 18.1422V18.1422Z" fill="#EEB67B"/>
<path d="M28.0952 21.4279C27.9115 21.4066 28.0446 20.5723 29.3268 19.8945C30.0922 19.4593 31.0254 19.1156 32.1728 18.8486L32.1967 18.8431C33.359 18.5716 34.3929 18.46 35.3027 18.4698C35.8023 18.4745 36.205 18.5188 36.5501 18.6006C37.1403 18.7328 37.3566 18.9767 37.3108 19.0234C37.2676 19.0673 37.0082 18.9509 36.4846 18.9059C36.1501 18.8822 35.8028 18.8859 35.3202 18.9189C34.4451 18.98 33.5039 19.1208 32.3693 19.3846L32.3464 19.3899C31.2257 19.6543 30.3681 19.9281 29.6021 20.2839C28.5123 20.834 28.2039 21.4405 28.0952 21.4278V21.4279Z" fill="#EEB67B"/>
<path d="M28.4753 23.68C28.4135 23.6093 28.9776 23.0485 30.1649 22.4533C31.0358 22.0167 32.1639 21.564 33.502 21.2253C36.6777 20.4214 39.2931 20.7471 39.2835 20.9022C39.2739 21.0556 36.6846 21.002 33.6874 21.761C32.3925 22.089 31.2978 22.4799 30.403 22.8393C29.2434 23.3024 28.5376 23.7507 28.4753 23.68Z" fill="#EEB67B"/>
</g>
<defs>
<clipPath id="clip0_4201_15160">
<rect width="45.1163" height="31.0008" fill="white" transform="translate(0 6.24414)"/>
</clipPath>
</defs>
</svg>
