<svg width="47" height="44" viewBox="0 0 47 44" fill="none" xmlns="http://www.w3.org/2000/svg">
<ellipse opacity="0.8" cx="22.369" cy="21.5478" rx="22.369" ry="20.31" fill="url(#paint0_radial_4200_15110)"/>
<g clip-path="url(#clip0_4200_15110)">
<path d="M26.562 30.5951C29.2464 28.7655 31.6431 25.7853 31.6431 21.8604C31.6431 16.5959 27.3755 12.3281 22.1109 12.3281C16.8464 12.3281 12.5786 16.5959 12.5786 21.8604C12.5786 25.7853 13.4961 27.3913 17.5687 30.4879C17.9175 30.7531 18.1198 31.761 18.229 32.5731C18.0297 32.6427 17.8889 32.7169 17.8225 32.7942C17.0733 33.6646 18.5318 36.2272 19.2562 36.569C20.3932 37.1058 24.1751 37.1237 25.065 36.569C25.7204 36.1607 27.4139 33.0263 26.1531 32.5612C26.0916 32.5385 26.0274 32.517 25.9614 32.4961C26.0455 31.7298 26.2164 30.8306 26.562 30.5951Z" fill="#FFD466"/>
<path d="M11.7182 19.4404C10.7491 19.5895 9.78012 19.7386 8.8111 19.8878C8.67243 19.9091 8.53376 19.9304 8.39509 19.9518C8.2756 19.9702 8.20951 20.1202 8.23887 20.2269C8.27395 20.3546 8.39416 20.4016 8.51403 20.3832C9.48306 20.234 10.4521 20.0849 11.4211 19.9358C11.5598 19.9145 11.6984 19.8931 11.8371 19.8718C11.9566 19.8534 12.0227 19.7034 11.9933 19.5966C11.9583 19.469 11.838 19.4219 11.7182 19.4404Z" fill="#DC8B3D"/>
<path d="M12.0057 16.8528C11.3011 16.7481 10.5965 16.6434 9.89188 16.5387C9.77253 16.521 9.65145 16.5685 9.61672 16.695C9.58773 16.8004 9.65273 16.9523 9.77296 16.9701C10.4776 17.0748 11.1822 17.1795 11.8868 17.2842C12.0062 17.3019 12.1272 17.2544 12.162 17.128C12.191 17.0225 12.126 16.8707 12.0057 16.8528Z" fill="#DC8B3D"/>
<path d="M13.2042 14.601C12.295 13.7921 11.3859 12.9833 10.4767 12.1744C10.2622 11.9836 9.94469 12.2989 10.1603 12.4907C11.0695 13.2996 11.9787 14.1085 12.8879 14.9174C13.1024 15.1082 13.4199 14.7929 13.2042 14.601Z" fill="#DC8B3D"/>
<path d="M14.9653 12.8001C14.5393 12.2782 14.1134 11.7562 13.6875 11.2343C13.6263 11.1593 13.5651 11.0843 13.504 11.0093C13.4275 10.9157 13.267 10.93 13.1876 11.0093C13.095 11.1019 13.111 11.2318 13.1876 11.3257C13.6136 11.8476 14.0395 12.3696 14.4654 12.8916C14.5265 12.9665 14.5877 13.0415 14.6489 13.1165C14.7254 13.2102 14.8859 13.1958 14.9653 13.1165C15.0579 13.0239 15.0419 12.894 14.9653 12.8001Z" fill="#DC8B3D"/>
<path d="M17.5998 11.2012C17.0636 10.2909 16.5275 9.38065 15.9914 8.47036C15.9169 8.34393 15.8425 8.21749 15.768 8.09103C15.622 7.84313 15.2351 8.06797 15.3817 8.31684C15.9178 9.22712 16.454 10.1374 16.9901 11.0477C17.0645 11.1741 17.139 11.3006 17.2135 11.427C17.3595 11.6749 17.7463 11.4501 17.5998 11.2012Z" fill="#DC8B3D"/>
<path d="M19.9137 10.6475C19.7482 10.096 19.5828 9.54446 19.4174 8.99295C19.3934 8.91276 19.3693 8.8326 19.3453 8.75239C19.2627 8.47734 18.8308 8.5945 18.9139 8.87133C19.0793 9.42283 19.2447 9.97435 19.4101 10.5258C19.4342 10.606 19.4582 10.6862 19.4823 10.7664C19.5648 11.0415 19.9967 10.9243 19.9137 10.6475Z" fill="#DC8B3D"/>
<path d="M22.3547 10.3923C22.2572 9.30573 22.2123 8.21344 22.1643 7.12376C22.1596 7.01868 22.1551 6.91358 22.1508 6.80849C22.139 6.52161 21.6917 6.52012 21.7033 6.80849C21.7399 7.69921 21.7833 8.58992 21.8398 9.4796C21.8592 9.78405 21.88 10.0884 21.9074 10.3923C21.9182 10.5126 22.0025 10.616 22.1311 10.616C22.2437 10.616 22.3657 10.5133 22.3547 10.3923Z" fill="#DC8B3D"/>
<path d="M32.3848 20.1866C33.3538 20.3357 34.3228 20.4848 35.2918 20.634C35.4306 20.6553 35.5692 20.6767 35.7079 20.698C35.8271 20.7164 35.9484 20.6678 35.983 20.5418C36.0122 20.4358 35.9469 20.2851 35.8268 20.2666C34.8578 20.1175 33.8888 19.9684 32.9196 19.8192C32.781 19.7979 32.6424 19.7766 32.5037 19.7552C32.3845 19.7369 32.2632 19.7854 32.2286 19.9115C32.1994 20.0174 32.2647 20.1681 32.3848 20.1866Z" fill="#DC8B3D"/>
<path d="M32.3352 17.5983C33.0399 17.4936 33.7445 17.3889 34.4491 17.2842C34.5686 17.2664 34.6346 17.1154 34.6054 17.009C34.57 16.8809 34.45 16.835 34.3301 16.8528C33.6254 16.9575 32.921 17.0622 32.2163 17.1669C32.0967 17.1847 32.0309 17.3357 32.0601 17.442C32.0953 17.5702 32.2153 17.6161 32.3352 17.5983Z" fill="#DC8B3D"/>
<path d="M30.9659 14.9174C31.875 14.1085 32.7843 13.2996 33.6935 12.4908C33.9089 12.299 33.5917 11.9835 33.3772 12.1744C32.4679 12.9833 31.5588 13.7922 30.6496 14.6011C30.434 14.7928 30.7514 15.1083 30.9659 14.9174Z" fill="#DC8B3D"/>
<path d="M29.2051 12.6554C29.6846 12.1264 30.1642 11.5974 30.6438 11.0684C30.7126 10.9924 30.7815 10.9164 30.8505 10.8404C30.9316 10.7509 30.9388 10.6125 30.8505 10.5241C30.768 10.4417 30.6156 10.4342 30.5342 10.5241C30.0546 11.0531 29.5751 11.5821 29.0955 12.111C29.0266 12.1871 28.9578 12.2631 28.8887 12.3391C28.8076 12.4286 28.8005 12.567 28.8887 12.6554C28.9712 12.7378 29.1237 12.7453 29.2051 12.6554Z" fill="#DC8B3D"/>
<path d="M26.8447 11.4271C27.3807 10.5168 27.9168 9.60651 28.453 8.69622C28.5274 8.56979 28.6019 8.44335 28.6763 8.31691C28.8228 8.06829 28.4362 7.84293 28.29 8.0911C27.7539 9.00139 27.2179 9.91168 26.6816 10.822C26.6072 10.9484 26.5328 11.0748 26.4584 11.2013C26.3118 11.4499 26.6985 11.6752 26.8447 11.4271Z" fill="#DC8B3D"/>
<path d="M24.5758 10.7665C24.7412 10.215 24.9065 9.66344 25.072 9.11195C25.0961 9.03176 25.1201 8.95158 25.1441 8.8714C25.227 8.59503 24.7953 8.47695 24.7128 8.75246C24.5473 9.30397 24.3819 9.85547 24.2166 10.407C24.1924 10.4872 24.1683 10.5673 24.1443 10.6475C24.0614 10.9239 24.4931 11.042 24.5758 10.7665Z" fill="#DC8B3D"/>
<path d="M25.2377 23.5235C25.5813 23.4258 25.9099 23.2604 26.1925 23.0685C26.8149 22.6455 27.1542 21.8578 26.9987 21.1137C26.93 20.7845 26.761 20.445 26.468 20.2614C26.145 20.0589 25.7684 20.1252 25.4529 20.3083C25.3274 20.3812 25.211 20.4681 25.103 20.5658C25.2782 21.4195 25.3493 22.2918 25.289 23.1613C25.2808 23.2805 25.2632 23.4014 25.2377 23.5235Z" fill="#FEBF57"/>
<path d="M23.4959 28.3912C23.4754 27.8728 23.4518 27.3541 23.4302 26.8354C23.0769 27.3514 22.8289 27.7562 22.8764 27.9673C22.9557 28.32 23.1985 28.5536 23.5081 28.7026C23.5041 28.5987 23.5 28.4951 23.4959 28.3912Z" fill="#FEBF57"/>
<path d="M29.9429 19.6734C29.2528 17.8105 27.8912 16.2311 26.235 15.134C25.6439 14.7424 24.8759 14.4042 24.2525 14.7421C23.7315 15.0245 23.5301 15.6957 23.6049 16.2835C23.6799 16.8713 23.9715 17.405 24.2228 17.9417C24.5441 18.6278 24.8053 19.3459 24.9916 20.081C25.2707 19.8688 25.5958 19.7167 25.9484 19.6902C26.3905 19.657 26.8024 19.8764 27.0704 20.2191C27.6247 20.9279 27.5883 21.9715 27.1328 22.7208C26.7108 23.4147 25.9023 23.8367 25.1274 24.0089C25.1173 24.011 25.1071 24.0123 25.0971 24.0144C24.8255 24.7757 24.3173 25.5526 23.8542 26.2237C23.868 26.5528 23.8834 26.8817 23.8965 27.2105C23.9181 27.7593 23.9398 28.3081 23.9615 28.8568C24.3892 28.954 24.8508 28.9492 25.1702 28.9047C27.1378 28.6309 28.8817 27.2573 29.7483 25.4696C30.6147 23.6821 30.6328 21.5363 29.9429 19.6734Z" fill="#FEBF57"/>
<path d="M26.1931 23.0685C25.6386 23.4451 24.907 23.7206 24.2325 23.5801C24.1138 23.5554 23.9974 23.5206 23.8833 23.4786C23.9325 23.0292 24.0155 22.5841 24.1561 22.1528C24.3844 21.4524 24.7967 20.6896 25.4535 20.3083C25.769 20.1252 26.1456 20.0589 26.4686 20.2613C26.7616 20.445 26.9306 20.7844 26.9992 21.1136C27.1547 21.8577 26.8154 22.6454 26.1931 23.0685ZM22.1961 19.9632C22.2865 19.7346 22.5338 19.377 22.8057 19.5826C23.1249 19.824 22.98 20.3572 22.893 20.6765C22.7677 21.137 22.5548 21.565 22.2727 21.9431C22.0103 21.3274 21.9511 20.583 22.1961 19.9632ZM19.316 23.4587C18.6011 23.3694 17.9161 22.8786 17.6533 22.2017C17.408 21.5701 17.4545 20.6276 18.1058 20.245C18.8211 19.8249 19.573 20.6119 19.9251 21.1601C20.3295 21.7901 20.5391 22.5001 20.6418 23.2351C20.2217 23.4177 19.7689 23.5152 19.316 23.4587ZM27.0708 20.2183C26.8029 19.8756 26.3909 19.6562 25.9488 19.6894C25.4766 19.7248 25.0537 19.9855 24.725 20.3142C24.1142 20.9246 23.7544 21.7657 23.5725 22.5986C23.5234 22.823 23.4857 23.0493 23.4569 23.2767C23.0758 23.0538 22.7449 22.7392 22.5044 22.3741C22.6791 22.1624 22.834 21.935 22.9639 21.694C23.18 21.2924 23.3389 20.8522 23.4099 20.4012C23.4823 19.9418 23.4221 19.373 22.9465 19.1478C22.5107 18.9415 22.0906 19.2193 21.876 19.6011C21.6609 19.9834 21.5935 20.462 21.6016 20.895C21.6107 21.3927 21.7354 21.8782 21.9579 22.3142C21.8419 22.4349 21.7183 22.5487 21.587 22.6544C21.4238 22.7857 21.247 22.9099 21.0603 23.0204C20.9664 22.4435 20.8072 21.8814 20.5454 21.3495C20.1701 20.5869 19.4867 19.7282 18.5646 19.6873C17.6111 19.6451 17.0668 20.6306 17.0664 21.4721C17.066 22.4008 17.6167 23.2448 18.447 23.6492C18.8111 23.8266 19.2062 23.9261 19.6125 23.9196C19.9845 23.9137 20.3479 23.8275 20.6925 23.6922C20.7509 24.3859 20.732 25.0915 20.7074 25.764C20.6335 27.7915 20.5478 29.8186 20.4678 31.8459L20.4544 32.1845C20.6011 32.1714 20.7508 32.1595 20.9032 32.1491C20.9749 30.3319 21.0465 28.5144 21.1182 26.6969C21.1593 25.6539 21.2336 24.5565 21.1233 23.4948C21.5157 23.2878 21.8794 23.0218 22.1966 22.7096C22.3399 22.913 22.5064 23.1011 22.6954 23.2683C22.9115 23.4591 23.1525 23.6246 23.4093 23.755C23.3706 24.2584 23.3667 24.7652 23.378 25.2687C23.4009 26.3096 23.4551 27.3505 23.4961 28.391C23.5401 29.5054 23.584 30.6201 23.628 31.7345C23.6332 31.8663 23.6384 31.9981 23.6436 32.1301C23.7953 32.1391 23.9449 32.1502 24.0923 32.1631C24.0272 30.5119 23.9621 28.8609 23.897 27.2097C23.8616 26.3137 23.8071 25.4155 23.8218 24.5185C23.8249 24.3242 23.8319 24.1295 23.8437 23.9351C24.2546 24.0676 24.6918 24.1049 25.1278 24.0081C25.9027 23.8359 26.7112 23.4139 27.1332 22.72C27.5887 21.9707 27.6251 20.9271 27.0708 20.2183Z" fill="#DC8B3D"/>
<path d="M17.8225 32.7942C17.0733 33.6646 18.5318 36.2272 19.2562 36.569C20.3933 37.1058 24.1751 37.1237 25.065 36.569C25.7204 36.1607 27.4139 33.0263 26.1531 32.5613C23.8667 31.7175 18.3663 32.1624 17.8225 32.7942Z" fill="#5060A0"/>
<path d="M18.1505 15.0714C18.1877 15.0701 18.225 15.0688 18.2622 15.0675C18.2474 14.9577 18.2325 14.8479 18.2176 14.738C17.4704 15.0486 16.7948 15.5051 16.2367 16.0923C16.0879 16.2488 16.3248 16.4864 16.4739 16.3296C16.9897 15.7869 17.6146 15.3492 18.3068 15.0616C18.384 15.0295 18.4404 14.9669 18.427 14.8775C18.415 14.7981 18.3471 14.7291 18.2622 14.732C18.225 14.7333 18.1877 14.7346 18.1505 14.7359C17.9352 14.7432 17.9342 15.0788 18.1505 15.0714Z" fill="white"/>
<path d="M15.3857 17.3181C14.7686 17.9157 14.3857 18.7136 14.1544 19.5317C13.9375 20.2989 13.8405 21.1058 13.8423 21.9023C13.8431 22.238 13.8626 22.5744 13.9149 22.9064C13.929 22.9957 14.041 23.0459 14.1213 23.0235C14.2166 22.9968 14.2527 22.9073 14.2384 22.8171C14.2223 22.7145 14.2099 22.603 14.1997 22.4731C14.1879 22.3225 14.1814 22.1713 14.1789 22.0201C14.1732 21.6695 14.189 21.3183 14.2243 20.9695C14.3044 20.1787 14.4872 19.377 14.8384 18.6605C15.0391 18.2513 15.2949 17.8731 15.6229 17.5553C15.7783 17.4048 15.541 17.1677 15.3857 17.3181Z" fill="white"/>
<path d="M16.9837 16.7932C16.4754 17.248 16.0611 17.8073 15.7757 18.4269C15.7378 18.5092 15.7523 18.6076 15.8358 18.6565C15.9082 18.6988 16.0273 18.6789 16.0654 18.5963C16.3402 17.9995 16.7314 17.4685 17.221 17.0304C17.3822 16.8861 17.1443 16.6495 16.9837 16.7932Z" fill="white"/>
<path d="M17.9487 16.4806C18.1646 16.4806 18.1649 16.145 17.9487 16.145C17.7328 16.145 17.7324 16.4806 17.9487 16.4806Z" fill="white"/>
<path d="M18.7304 15.9644C18.9463 15.9644 18.9467 15.6289 18.7304 15.6289C18.5145 15.6289 18.5142 15.9644 18.7304 15.9644Z" fill="white"/>
<path d="M14.9363 21.7242C14.7721 22.6371 14.8364 23.5788 15.1365 24.4572C15.2059 24.6604 15.5301 24.5731 15.46 24.3681C15.1799 23.548 15.1062 22.6674 15.2598 21.8136C15.2978 21.6023 14.9745 21.5117 14.9363 21.7242Z" fill="white"/>
<path d="M24.9449 33.4128C23.4768 33.7126 21.9542 33.758 20.4713 33.539C20.0526 33.4771 19.6374 33.3945 19.2266 33.2926C19.0589 33.251 18.9874 33.5098 19.1553 33.5514C20.6458 33.9208 22.1992 34.032 23.7268 33.871C24.1596 33.8254 24.59 33.7587 25.0163 33.6717C25.1854 33.6371 25.1139 33.3783 24.9449 33.4128Z" fill="white"/>
<path d="M25.0292 34.5525C24.3966 34.5522 23.7641 34.5516 23.1316 34.5513C22.9588 34.5513 22.9587 34.8196 23.1316 34.8197C23.7641 34.8201 24.3966 34.8205 25.0292 34.821C25.2019 34.821 25.2022 34.5527 25.0292 34.5525Z" fill="white"/>
<path d="M21.6325 34.6062C21.3456 34.5956 21.0586 34.585 20.7715 34.5743C20.7013 34.5718 20.6342 34.638 20.6373 34.7086C20.6407 34.7836 20.6963 34.8399 20.7715 34.8428C21.0586 34.8533 21.3456 34.8641 21.6325 34.8747C21.7028 34.8772 21.7699 34.811 21.7669 34.7405C21.7635 34.6656 21.7079 34.6091 21.6325 34.6062Z" fill="white"/>
<path d="M19.655 34.841C19.8278 34.841 19.828 34.5728 19.655 34.5728C19.4823 34.5728 19.482 34.841 19.655 34.841Z" fill="white"/>
<path d="M18.9695 34.8256C19.1422 34.8256 19.1425 34.5571 18.9695 34.5571C18.7968 34.5571 18.7965 34.8256 18.9695 34.8256Z" fill="white"/>
<path d="M23.705 35.5187C22.7962 35.4927 21.8875 35.4665 20.9787 35.4405C20.8059 35.4355 20.806 35.704 20.9787 35.7088C21.8875 35.735 22.7962 35.761 23.705 35.7872C23.8777 35.792 23.8777 35.5237 23.705 35.5187Z" fill="white"/>
</g>
<defs>
<radialGradient id="paint0_radial_4200_15110" cx="0" cy="0" r="1" gradientUnits="userSpaceOnUse" gradientTransform="translate(22.369 21.5478) rotate(90) scale(20.31 22.369)">
<stop stop-color="#FFFC60"/>
<stop offset="1" stop-color="#FFFC60" stop-opacity="0"/>
</radialGradient>
<clipPath id="clip0_4200_15110">
<rect width="27.7622" height="30.3986" fill="white" transform="translate(8.23193 6.59277)"/>
</clipPath>
</defs>
</svg>
